<svg width="80" height="80" viewBox="0 0 80 80" fill="none" xmlns="http://www.w3.org/2000/svg">
<path d="M24.8561 29.2063L20.0311 42.6063C19.9884 42.7231 19.9318 42.8343 19.8623 42.9375C19.6924 43.1675 19.453 43.3366 19.1795 43.4199C18.9059 43.5032 18.6128 43.4963 18.3436 43.4L17.9436 43.2625C17.6146 43.144 17.3461 42.8996 17.1973 42.5831C17.0484 42.2667 17.0313 41.9041 17.1498 41.575L17.2123 41.3875L17.4186 40.8125L21.9623 28.175C22.0833 27.8499 22.328 27.5858 22.643 27.4406C22.9581 27.2954 23.3178 27.2808 23.6436 27.4L24.0373 27.5438C24.2821 27.6308 24.4957 27.7881 24.6513 27.996C24.807 28.2039 24.8978 28.4532 24.9123 28.7125C24.9247 28.8792 24.9057 29.0467 24.8561 29.2063ZM21.3436 48.05L21.3061 48L20.3873 46.4313L20.0936 46.55C19.8557 46.6015 19.6338 46.7096 19.4466 46.8652C19.2595 47.0208 19.1126 47.2193 19.0186 47.4438C18.9265 47.9242 18.9743 48.4209 19.1561 48.875C19.2133 49.0861 19.3116 49.2838 19.4453 49.4569C19.579 49.6299 19.7456 49.7749 19.9354 49.8835C20.1253 49.9921 20.3347 50.0621 20.5517 50.0896C20.7686 50.1171 20.9889 50.1015 21.1998 50.0438L22.4998 49.5688C22.0871 49.0839 21.7012 48.5769 21.3436 48.05ZM15.3936 40.9313L20.5311 26.875C20.9169 26.2953 21.4806 25.8566 22.1373 25.625C21.8978 24.6258 21.2966 23.7508 20.4498 23.1688L17.6561 21.2938C17.3196 21.0646 16.9353 20.9155 16.5323 20.8578C16.1294 20.8001 15.7186 20.8353 15.3314 20.9608C14.9441 21.0862 14.5907 21.2986 14.2982 21.5816C14.0057 21.8647 13.7817 22.2109 13.6436 22.5938L7.49984 39.6813C7.36157 40.065 7.31309 40.4752 7.3581 40.8806C7.40312 41.2859 7.54044 41.6756 7.75951 42.0196C7.97859 42.3636 8.27359 42.6528 8.62187 42.865C8.97015 43.0772 9.36243 43.2068 9.76859 43.2438L13.1311 43.5563C13.915 43.6309 14.7039 43.4814 15.4061 43.125C15.1369 42.4193 15.1325 41.64 15.3936 40.9313ZM72.1936 36.5063L61.8748 21.5063C61.6449 21.1752 61.3429 20.9005 60.9915 20.7029C60.6402 20.5053 60.2486 20.3898 59.8463 20.3651C59.4439 20.3404 59.0412 20.4073 58.6684 20.5605C58.2955 20.7138 57.9623 20.9495 57.6936 21.25L55.4748 23.8C54.8012 24.5776 54.4403 25.5777 54.4623 26.6063C54.6742 26.6278 54.8835 26.6696 55.0873 26.7313C55.5987 26.9022 56.0386 27.2387 56.3373 27.6875L64.8373 39.7188C65.2537 40.3331 65.4417 41.074 65.3686 41.8125C66.1408 41.9903 66.9477 41.9425 67.6936 41.675L70.8686 40.5188C71.2536 40.3833 71.6024 40.1614 71.8881 39.87C72.1739 39.5787 72.3891 39.2256 72.517 38.8381C72.645 38.4506 72.6824 38.0388 72.6263 37.6346C72.5703 37.2303 72.4222 36.8443 72.1936 36.5063ZM59.9998 44.3375C59.7105 44.1323 59.4589 43.8785 59.2561 43.5875L51.2061 31.8313C50.9826 31.513 50.8234 31.1543 50.7373 30.775C50.3873 30.875 50.0686 30.9688 49.8123 31.0625C48.4498 31.5563 43.9873 30.1938 43.0248 30.1625C42.0623 30.1313 35.7248 30.2438 33.6123 30.4375C33.6123 30.4375 25.1561 34.2875 28.8436 37.1313C29.9498 37.9875 35.4436 35.3188 35.4436 35.3188C35.4436 35.3188 38.8686 36.075 40.4123 36.5188C41.4748 36.825 41.8873 37.9125 41.0373 38.6063L55.1186 46.1063C56.1436 45.8625 59.0873 45.5875 59.7811 44.8L60.1186 44.4063L59.9998 44.3375ZM62.9873 42.6125L62.6373 42.8563C62.4145 43.0142 62.148 43.0991 61.8748 43.0991C61.6017 43.0991 61.3352 43.0142 61.1123 42.8563C60.9904 42.7715 60.8846 42.6657 60.7998 42.5438L52.7561 30.7688C52.6411 30.6074 52.5661 30.421 52.5373 30.225C52.5028 29.9768 52.5397 29.7238 52.6437 29.4958C52.7478 29.2678 52.9147 29.0741 53.1248 28.9375L53.4748 28.6938C53.7621 28.4982 54.115 28.4239 54.4568 28.4871C54.7985 28.5503 55.1015 28.7459 55.2998 29.0313L55.6686 29.5688L62.9373 40.1938L63.3561 40.8188C63.5405 41.1069 63.6051 41.4555 63.5362 41.7906C63.4674 42.1256 63.2704 42.4205 62.9873 42.6125ZM45.2248 28.6625C46.4549 28.9768 47.7094 29.1859 48.9748 29.2875H49.1998L49.4186 29.2125C49.4293 28.9925 49.3727 28.7744 49.2561 28.5875C47.8436 26.3938 45.2686 27.1875 43.2811 28.3C43.9351 28.3854 44.584 28.5064 45.2248 28.6625Z" fill="url(#paint0_linear_311_1028)"/>
<path d="M53.4562 52.2875L52.2062 51.5875C52.7284 51.7098 53.2772 51.6361 53.7485 51.3804C54.2198 51.1246 54.5808 50.7046 54.7628 50.2002C54.9448 49.6958 54.9352 49.1421 54.7358 48.6443C54.5364 48.1465 54.1611 47.7393 53.6812 47.5L45.5187 43.0688C45.3816 42.9953 45.237 42.9367 45.0875 42.8938C41.1812 40.7938 37.6437 38.9188 37.6437 38.9188L38.75 38.0125C37.6812 37.7438 36.3937 37.45 35.625 37.2813C34.2562 37.9063 31.2875 39.1563 29.4875 39.1563C28.8322 39.18 28.1877 38.9843 27.6562 38.6C27.0953 38.2179 26.6473 37.6919 26.3593 37.0773C26.0712 36.4627 25.9536 35.7819 26.0188 35.1063C26.375 32.0563 30.75 29.6813 32.5062 28.8563C31.4062 28.5188 30.3437 28.2313 29.6437 28.0438C28.8421 27.8486 28.003 27.8701 27.2125 28.1063L26.7125 28.25C26.813 28.7839 26.7655 29.3351 26.575 29.8438L21.8 43.2375C21.7048 43.4923 21.5811 43.7356 21.4313 43.9625L21.3687 44.0563L21.25 44.1875L22.8875 46.9938C23.5189 47.9214 24.2458 48.7802 25.0562 49.5563C26.0125 48.5 27.2063 47.2188 27.2813 47.1813C27.6267 47.0214 28.0126 46.9704 28.3878 47.0352C28.7629 47.1 29.1094 47.2773 29.3812 47.5438C29.7327 47.8156 29.972 48.207 30.0538 48.6437C30.1356 49.0804 30.0542 49.5319 29.825 49.9125L28.1875 51.9188L28.2562 51.9563L29.9625 50C30.2569 49.6746 30.6684 49.4793 31.1067 49.4571C31.5449 49.4348 31.9741 49.5874 32.3 49.8813C32.5504 50.0833 32.7446 50.3464 32.8639 50.6453C32.9832 50.9441 33.0236 51.2686 32.9812 51.5875C32.9469 51.8167 32.852 52.0324 32.7063 52.2125L31.625 53.5813L31.7125 53.6375L32.7937 52.3875C32.9353 52.2348 33.107 52.1129 33.2979 52.0295C33.4888 51.9461 33.6948 51.9031 33.9031 51.9031C34.1114 51.9031 34.3175 51.9461 34.5084 52.0295C34.6993 52.1129 34.8709 52.2348 35.0125 52.3875C35.2631 52.5883 35.4579 52.8501 35.5783 53.1478C35.6986 53.4454 35.7406 53.769 35.7 54.0875C35.6645 54.3163 35.5697 54.5318 35.425 54.7125L35.05 55.1563L38.675 56.8188L44.2312 59.4625C44.5148 59.6028 44.8292 59.6691 45.1453 59.6552C45.4613 59.6413 45.7687 59.5476 46.0388 59.3829C46.3089 59.2182 46.533 58.9879 46.6901 58.7133C46.8472 58.4387 46.9323 58.1289 46.9375 57.8125C47.3052 57.9885 47.715 58.0575 48.1201 58.0118C48.5252 57.9661 48.9093 57.8075 49.2286 57.554C49.5478 57.3005 49.7895 56.9624 49.9259 56.5783C50.0623 56.1941 50.0879 55.7794 50 55.3813L51.3 56.1063C51.5513 56.2561 51.83 56.3539 52.1197 56.3941C52.4095 56.4342 52.7043 56.4159 52.9869 56.3401C53.2694 56.2643 53.5339 56.1326 53.7646 55.9528C53.9953 55.773 54.1877 55.5488 54.3302 55.2934C54.4728 55.0379 54.5626 54.7565 54.5945 54.4657C54.6264 54.175 54.5997 53.8808 54.5158 53.6005C54.432 53.3203 54.2929 53.0597 54.1066 52.8341C53.9203 52.6086 53.6906 52.4228 53.4312 52.2875H53.4562Z" fill="url(#paint1_linear_311_1028)"/>
<defs>
<linearGradient id="paint0_linear_311_1028" x1="73.498" y1="20.8121" x2="50.3486" y2="70.2435" gradientUnits="userSpaceOnUse">
<stop stop-color="#F45634"/>
<stop offset="0.504" stop-color="#9D2161"/>
<stop offset="1" stop-color="#1E1C49"/>
</linearGradient>
<linearGradient id="paint1_linear_311_1028" x1="55.3286" y1="28.3942" x2="23.1779" y2="61.5277" gradientUnits="userSpaceOnUse">
<stop stop-color="#F45634"/>
<stop offset="0.504" stop-color="#9D2161"/>
<stop offset="1" stop-color="#1E1C49"/>
</linearGradient>
</defs>
</svg>
