<svg width="80" height="80" viewBox="0 0 80 80" fill="none" xmlns="http://www.w3.org/2000/svg">
<path d="M76.2598 66.8755H60.0098V58.817C67.6173 61.7158 74.7497 53.1939 70.5973 46.213C76.5847 41.0896 74.0324 30.9394 66.3723 29.2755C67.429 20.2554 56.7821 15.3657 52.2223 23.5755C51.1473 22.9005 49.9473 22.413 48.6598 22.138C49.5312 16.3567 45.3506 10.5283 40.0097 10.6256C34.6702 10.5279 30.4865 16.3573 31.3598 22.138C30.0723 22.413 28.8723 22.9005 27.7973 23.5755C23.233 15.3622 12.5903 20.2605 13.6473 29.2755C5.98427 30.9407 3.4368 41.0914 9.4223 46.213C5.26887 53.1973 12.4056 61.7152 20.0098 58.817V66.8755H3.75977C3.06945 66.8755 2.50977 67.4346 2.50977 68.1255C2.50977 68.8164 3.06945 69.3755 3.75977 69.3755H76.2598C77.8694 69.3571 77.9298 66.9055 76.2598 66.8755ZM38.7598 63.1255H31.2598C30.5695 63.1255 30.0098 63.6846 30.0098 64.3755C30.0098 65.0664 30.5695 65.6255 31.2598 65.6255H38.7598V66.8755H22.5098V58.817C25.7913 60.1314 29.8896 59.03 32.0723 56.438C34.1969 57.1091 36.6953 57.0023 38.7598 56.1385V63.1255ZM40.0098 46.8755C39.3195 46.8755 38.7598 47.4346 38.7598 48.1255V53.3445C31.7145 57.4384 24.0029 48.7044 29.1474 42.2005C29.6104 41.6547 29.4658 40.7619 28.8723 40.388C22.0847 35.8452 24.8531 25.0996 32.9475 24.4131C33.6899 24.3755 34.2505 23.5748 34.0473 22.863C32.7366 18.4777 35.7713 12.9838 40.0099 13.1256C43.4598 13.1255 46.2598 16.488 46.2598 20.6255C46.4152 21.8964 45.1088 24.1041 47.0724 24.413C53.1617 24.7939 57.0171 32.0081 53.9348 37.3255C51.9598 38.113 50.4848 39.888 50.1098 42.0255C43.5075 40.5954 39.6409 49.28 45.1598 53.213C45.2325 53.5888 45.331 53.9631 45.4507 54.316C43.9893 54.5297 42.5225 54.0481 41.2598 53.3445V48.1255C41.2598 47.4346 40.7001 46.8755 40.0098 46.8755ZM42.7782 56.6067L41.2598 57.9082V56.1385C41.7511 56.3395 42.2604 56.4878 42.7782 56.6067ZM57.5098 66.8755H41.2598V65.6255H48.7598C49.4501 65.6255 50.0098 65.0664 50.0098 64.3755C50.0098 63.6846 49.4501 63.1255 48.7598 63.1255H41.2598V61.1999L46.4376 56.7618C46.553 56.7444 46.6711 56.7352 46.7848 56.713C49.2052 59.7684 53.9937 59.9102 57.5098 58.817V66.8755ZM57.4223 52.763C56.7587 56.963 51.0536 58.3331 48.5708 54.9334L49.5733 54.074C50.8107 53.0049 49.1889 51.1162 47.9462 52.177L47.5836 52.4878C47.5603 51.3586 46.2096 51.1664 45.7349 50.3004C43.9004 47.9648 45.7914 44.2921 48.7598 44.3756C49.947 44.175 51.1474 45.7603 52.1973 44.7381C52.6705 44.3083 52.567 43.6933 52.5097 43.1255C52.4983 41.0558 54.2351 39.3584 56.2598 39.3755C58.3223 39.3755 60.0098 41.063 60.0098 43.1255C60.0321 43.835 59.4232 44.8464 60.1473 45.463C62.2328 47.4165 61.1894 51.2019 58.3597 51.7629C57.8723 51.8755 57.5098 52.2755 57.4223 52.763Z" fill="url(#paint0_linear_311_1032)"/>
<path d="M13.7594 65.6256C15.4003 65.5988 15.4042 63.1531 13.7594 63.1256H6.2594C4.61855 63.1524 4.61474 65.5981 6.25948 65.6256C6.2594 65.6256 13.7594 65.6256 13.7594 65.6256ZM65.0094 64.3756C65.0094 65.0665 65.5691 65.6256 66.2594 65.6256H73.7594C74.4497 65.6256 75.0094 65.0665 75.0094 64.3756C75.0094 63.6847 74.4497 63.1256 73.7594 63.1256H66.2594C65.5691 63.1256 65.0094 63.6847 65.0094 64.3756Z" fill="url(#paint1_linear_311_1032)"/>
<defs>
<linearGradient id="paint0_linear_311_1032" x1="78.4614" y1="11.5173" x2="20.2946" y2="83.7059" gradientUnits="userSpaceOnUse">
<stop stop-color="#F45634"/>
<stop offset="0.504" stop-color="#9D2161"/>
<stop offset="1" stop-color="#1E1C49"/>
</linearGradient>
<linearGradient id="paint1_linear_311_1032" x1="75.9163" y1="63.1636" x2="75.7304" y2="68.2229" gradientUnits="userSpaceOnUse">
<stop stop-color="#F45634"/>
<stop offset="0.504" stop-color="#9D2161"/>
<stop offset="1" stop-color="#1E1C49"/>
</linearGradient>
</defs>
</svg>
