<svg width="80" height="63" viewBox="0 0 80 63" fill="none" xmlns="http://www.w3.org/2000/svg">
<g clip-path="url(#clip0_387_3465)">
<path d="M59.2577 0H55.3358V46.0697H51.4959V43.0656C51.4959 41.9594 50.5991 41.0626 49.493 41.0626L49.1785 41.0008C49.0799 40.4751 48.9834 39.9635 48.9044 39.5431L42.2996 4.41976C42.0962 3.33706 41.8256 1.90027 41.6991 1.22673C41.5725 0.553186 40.9076 0.00199347 40.2226 0.00199347C39.5376 0.00199347 38.0752 0.00199347 36.9735 0.00199347H17.9449C16.843 0.00199347 15.2655 0.00199347 14.4392 0.00199347C13.6131 0.00199347 12.9371 0.677778 12.9371 1.50407C12.9371 2.33061 12.9371 3.90769 12.9371 5.00933V33.8667L2.00318 31.7143C0.897059 31.7143 0 32.6113 0 33.7175V52.7466C0 53.8527 0.897059 54.7495 2.00318 54.7495H3.60319C3.53466 53.1582 3.86508 51.5665 4.5897 50.0985C5.72498 47.7981 7.68805 46.0777 10.1178 45.2542C11.1176 44.915 12.1552 44.7431 13.202 44.7431C13.3066 44.7431 13.4108 44.7461 13.5147 44.7493C14.26 44.7735 14.9884 44.8836 15.6886 45.0713C18.7358 45.8876 21.2491 48.1738 22.2982 51.2657C22.6844 52.4047 22.8486 53.5826 22.8003 54.7493H28.288C28.2195 53.158 28.5497 51.5662 29.2743 50.0983C30.4093 47.7978 32.3726 46.0774 34.8024 45.2539C35.004 45.1856 35.2071 45.1258 35.4114 45.0713C36.221 44.8545 37.0508 44.7431 37.8866 44.7431C38.741 44.7431 39.575 44.8575 40.3731 45.0713C43.4204 45.8876 45.9339 48.1738 46.9825 51.2657C47.369 52.4047 47.5332 53.5826 47.4848 54.7493H49.4933C50.5994 54.7493 51.4962 53.8525 51.4962 52.7463V50.409H55.3361V56.0841C55.3361 56.0841 80 56.0841 80 52.2452C71.6935 52.2452 59.258 52.2452 59.258 52.2452L59.2577 0ZM15.9417 5.01008C15.9417 3.90819 16.843 3.00689 17.9449 3.00689H36.974C38.0759 3.00689 39.1439 3.89274 39.3473 4.97519L44.2651 31.1297H42.8991L40.1658 29.2122C39.9159 29.5297 39.5887 29.7883 39.2012 29.9558L40.8743 31.1297H37.594L38.2195 30.2384C37.2925 30.4549 36.3795 30.5957 35.4902 30.6577L35.1587 31.13H30.0465C29.986 30.7208 29.9319 30.3126 29.8843 29.9057C27.9997 29.2187 26.6379 28.227 25.8356 27.5188C24.2505 26.1283 23.4299 24.7666 23.1509 24.2458C22.5115 23.0011 22.9946 21.4958 24.2166 20.8683C24.5677 20.6879 24.9609 20.5922 25.3536 20.5922C26.2923 20.5922 27.142 21.111 27.5714 21.9461C27.5739 21.9493 27.5901 21.9775 27.6137 22.0168C27.6558 22.0868 27.7463 22.2316 27.8851 22.4227C28.1251 22.7559 28.5327 23.2583 29.1158 23.7671C29.2182 23.8553 29.3219 23.9398 29.4263 24.0218C29.4238 23.9846 29.4213 23.945 29.4188 23.9081C29.4671 21.3276 27.7949 18.7027 25.6031 18.7416C23.411 18.7804 20.7318 20.6949 20.4652 24.5438C20.3057 27.0578 20.3368 29.1113 20.6304 31.1302H15.9417V5.01008Z" fill="url(#paint0_linear_387_3465)"/>
<path d="M61.3865 47.9055C61.3865 49.0116 62.2836 49.9087 63.3897 49.9087H77.4112C78.5173 49.9087 79.4144 49.0116 79.4144 47.9055V33.8839C79.4144 32.7778 78.5173 31.881 77.4112 31.881H63.3897C62.2836 31.881 61.3865 32.7778 61.3865 33.8839V47.9055ZM63.3897 29.7111H77.4112C78.5173 29.7111 79.4144 28.8141 79.4144 27.7079V13.6864C79.4144 12.5805 78.5173 11.6837 77.4112 11.6837H63.3897C62.2836 11.6837 61.3865 12.5805 61.3865 13.6864V27.7082C61.3865 28.8143 62.2833 29.7111 63.3897 29.7111ZM20.9904 51.7098C19.5317 47.4081 14.8628 45.1032 10.5614 46.5619C7.00203 47.7687 4.81246 51.1743 4.98838 54.75C5.02501 55.4956 5.16206 56.2486 5.41374 56.9904C6.87146 61.2923 11.5409 63.5973 15.8428 62.1386C19.1355 61.0225 21.2561 58.0241 21.4163 54.75C21.4654 53.7468 21.3326 52.7182 20.9904 51.7098ZM14.245 57.427C12.5459 58.0029 10.7009 57.0924 10.1253 55.3934C10.053 55.1804 10.0042 54.9648 9.97728 54.75C9.78989 53.2512 10.6727 51.7765 12.1589 51.2732C13.8581 50.6968 15.7033 51.6081 16.2789 53.307C16.4418 53.7874 16.482 54.2783 16.4231 54.75C16.2736 55.9469 15.464 57.0136 14.245 57.427ZM45.6748 51.7098C44.2165 47.4081 39.5473 45.1032 35.2459 46.5619C31.6864 47.7687 29.4965 51.1743 29.6725 54.75C29.7091 55.4956 29.8461 56.2486 30.0978 56.9904C31.556 61.2923 36.2252 63.5973 40.5271 62.1386C43.8196 61.0225 45.9401 58.0241 46.1004 54.75C46.1495 53.7468 46.0166 52.7182 45.6748 51.7098ZM38.9296 57.427C37.2304 58.0029 35.3857 57.0924 34.8096 55.3934C34.7374 55.1804 34.6888 54.9648 34.6619 54.75C34.4747 53.2512 35.3576 51.7765 36.8435 51.2732C38.5426 50.6968 40.3878 51.6081 40.9635 53.307C41.1264 53.7874 41.1665 54.2783 41.1077 54.75C40.958 55.9469 40.1486 57.0136 38.9296 57.427Z" fill="url(#paint1_linear_387_3465)"/>
<path d="M27.9631 17.8238C31.0573 17.721 33.4823 15.1295 33.3795 12.0356C33.2767 8.94167 30.685 6.51689 27.5908 6.6197C24.4966 6.72251 22.0716 9.31396 22.1744 12.4079C22.2772 15.5018 24.8689 17.9266 27.9631 17.8238Z" fill="url(#paint2_linear_387_3465)"/>
<path d="M40.5735 26.8831L41.3713 25.7461C41.6876 25.2953 41.5784 24.6736 41.1279 24.3576C40.6771 24.0414 40.0554 24.1506 39.7394 24.6013L39.1917 25.3818C39.8331 25.6574 40.3445 26.1974 40.5735 26.8831ZM40.1885 27.4316C40.177 27.3386 40.1616 27.2457 40.1364 27.1525C39.961 26.5034 39.4838 26.0172 38.897 25.8017C38.5234 25.6644 38.106 25.636 37.6927 25.7476C36.4679 26.0775 35.3907 26.2096 34.4408 26.2098C32.2206 26.2023 30.6348 25.5051 29.4689 24.6758C29.2247 24.5019 28.9974 24.3228 28.7883 24.1423C28.1928 23.6226 27.757 23.0968 27.4816 22.715C27.3433 22.5247 27.2456 22.3712 27.1871 22.2737C27.1579 22.2254 27.1383 22.1907 27.1285 22.1733H27.128C26.6247 21.194 25.4231 20.808 24.4441 21.3111C23.465 21.8145 23.0791 23.0165 23.5819 23.9956C23.6599 24.1401 24.4291 25.622 26.1649 27.1448C27.0839 27.9556 28.3089 28.7704 29.8222 29.355C31.1356 29.8623 32.6654 30.1968 34.4099 30.1968C34.4206 30.1968 34.4306 30.1968 34.4411 30.1965C34.9016 30.1965 35.3762 30.1723 35.8629 30.1255C36.7512 30.04 37.6827 29.8738 38.656 29.6154C38.6709 29.6114 38.6854 29.6082 38.7003 29.6042C38.7108 29.6015 38.7205 29.599 38.731 29.5965C39.1519 29.4826 39.5035 29.2411 39.7584 28.9262C40.0905 28.516 40.2555 27.98 40.1885 27.4316Z" fill="url(#paint3_linear_387_3465)"/>
</g>
<defs>
<linearGradient id="paint0_linear_387_3465" x1="81.0367" y1="0.852341" x2="27.1228" y2="75.6375" gradientUnits="userSpaceOnUse">
<stop stop-color="#F45634"/>
<stop offset="0.504" stop-color="#9D2161"/>
<stop offset="1" stop-color="#1E1C49"/>
</linearGradient>
<linearGradient id="paint1_linear_387_3465" x1="80.379" y1="12.4572" x2="31.855" y2="81.4729" gradientUnits="userSpaceOnUse">
<stop stop-color="#F45634"/>
<stop offset="0.504" stop-color="#9D2161"/>
<stop offset="1" stop-color="#1E1C49"/>
</linearGradient>
<linearGradient id="paint2_linear_387_3465" x1="33.3442" y1="6.599" x2="22.363" y2="18.0122" gradientUnits="userSpaceOnUse">
<stop stop-color="#F45634"/>
<stop offset="0.504" stop-color="#9D2161"/>
<stop offset="1" stop-color="#1E1C49"/>
</linearGradient>
<linearGradient id="paint3_linear_387_3465" x1="41.788" y1="21.2288" x2="34.2783" y2="35.8167" gradientUnits="userSpaceOnUse">
<stop stop-color="#F45634"/>
<stop offset="0.504" stop-color="#9D2161"/>
<stop offset="1" stop-color="#1E1C49"/>
</linearGradient>
<clipPath id="clip0_387_3465">
<rect width="80" height="62.5764" fill="white"/>
</clipPath>
</defs>
</svg>
