<svg width="80" height="80" viewBox="0 0 80 80" fill="none" xmlns="http://www.w3.org/2000/svg">
<g clip-path="url(#clip0_387_3456)">
<path d="M11.6657 43.3333H31.6657C32.1078 43.3333 32.5317 43.1577 32.8442 42.8452C33.1568 42.5326 33.3324 42.1087 33.3324 41.6667V31.6667C33.3324 31.2246 33.1568 30.8007 32.8442 30.4882C32.5317 30.1756 32.1078 30 31.6657 30H29.2257L23.3324 21.1633V13.0267C24.7457 12.5233 25.8557 11.4133 26.3591 10H56.6657V36.6667H54.9991C54.557 36.6667 54.1331 36.8423 53.8206 37.1548C53.508 37.4674 53.3324 37.8913 53.3324 38.3333V41.6667C53.3324 42.1087 53.508 42.5326 53.8206 42.8452C54.1331 43.1577 54.557 43.3333 54.9991 43.3333H58.3324C60.3891 43.3333 62.2124 44.5667 62.9757 46.4767L66.6324 55.62C66.7562 55.929 66.9697 56.1938 67.2454 56.3803C67.521 56.5669 67.8462 56.6666 68.1791 56.6667H68.3324C68.7744 56.6667 69.1984 56.4911 69.5109 56.1785C69.8235 55.866 69.9991 55.442 69.9991 55V38.3333C69.9991 37.8913 69.8235 37.4674 69.5109 37.1548C69.1984 36.8423 68.7744 36.6667 68.3324 36.6667H66.6657V15.27L69.9124 5.52667C69.9357 5.45333 69.9291 5.38 69.9424 5.30667C69.9591 5.21667 69.9791 5.13 69.9824 5.03667C69.9826 4.90067 69.9658 4.76517 69.9324 4.63333C69.9191 4.58 69.9291 4.52333 69.9124 4.47C69.9057 4.45333 69.8924 4.44333 69.8857 4.42333C69.8278 4.2763 69.7492 4.13825 69.6524 4.01333C69.6224 3.97 69.6024 3.92 69.5691 3.88333C69.4574 3.76755 69.3294 3.66873 69.1891 3.59C69.1491 3.56333 69.1157 3.52667 69.0724 3.50333L62.4091 0.173333C62.1779 0.0592888 61.9235 -1.94919e-05 61.6657 4.80538e-09H14.9991C14.557 4.80538e-09 14.1331 0.175595 13.8206 0.488155C13.508 0.800716 13.3324 1.22464 13.3324 1.66667V8.33333C13.3324 8.77536 13.508 9.19928 13.8206 9.51184C14.1331 9.82441 14.557 10 14.9991 10H16.9724C17.4757 11.4133 18.5857 12.5233 19.9991 13.0267V21.1633L14.1057 30H11.6657C11.2237 30 10.7998 30.1756 10.4872 30.4882C10.1747 30.8007 9.99907 31.2246 9.99907 31.6667V41.6667C9.99907 42.1087 10.1747 42.5326 10.4872 42.8452C10.7998 43.1577 11.2237 43.3333 11.6657 43.3333ZM21.6657 24.67L25.2191 30H18.1157L21.6657 24.67ZM79.6457 63.9733C79.4901 63.7736 79.2909 63.612 79.0633 63.5011C78.8356 63.3902 78.5856 63.3328 78.3324 63.3333H66.1291L59.8824 47.7133C59.7586 47.4044 59.5451 47.1396 59.2694 46.953C58.9938 46.7665 58.6686 46.6667 58.3357 46.6667H38.3357C37.8937 46.6667 37.4698 46.8423 37.1572 47.1548C36.8447 47.4674 36.6691 47.8913 36.6691 48.3333V63.3333H30.0024V58.3333C30.0024 57.8913 29.8268 57.4674 29.5142 57.1548C29.2017 56.8423 28.7778 56.6667 28.3357 56.6667H20.0024V55C20.0024 54.558 19.8268 54.1341 19.5142 53.8215C19.2017 53.5089 18.7778 53.3333 18.3357 53.3333H8.33574C7.89371 53.3333 7.46979 53.5089 7.15723 53.8215C6.84467 54.1341 6.66907 54.558 6.66907 55V63.3333H5.0024C4.63063 63.3334 4.26957 63.4578 3.97663 63.6868C3.6837 63.9157 3.47571 64.2359 3.38574 64.5967L0.0524031 77.93C-0.0109301 78.1758 -0.0169413 78.4328 0.0348336 78.6813C0.0866086 78.9298 0.194785 79.1631 0.351014 79.3631C0.507242 79.5631 0.707345 79.7246 0.935878 79.835C1.16441 79.9455 1.41526 80.0019 1.66907 80H61.2591C65.5573 80.0048 69.7333 78.5699 73.1209 75.9242C76.5084 73.2786 78.9123 69.5747 79.9491 65.4033C80.0105 65.1576 80.0151 64.9011 79.9625 64.6533C79.91 64.4055 79.8016 64.173 79.6457 63.9733ZM31.6657 75C29.8291 75 28.3324 73.5033 28.3324 71.6667C28.3324 69.83 29.8291 68.3333 31.6657 68.3333C33.5024 68.3333 34.9991 69.83 34.9991 71.6667C34.9991 73.5033 33.5024 75 31.6657 75ZM51.6657 75C49.8291 75 48.3324 73.5033 48.3324 71.6667C48.3324 69.83 49.8291 68.3333 51.6657 68.3333C53.5024 68.3333 54.9991 69.83 54.9991 71.6667C54.9991 73.5033 53.5024 75 51.6657 75ZM39.9991 63.3333V50H57.2057L62.5391 63.3333H39.9991Z" fill="url(#paint0_linear_387_3456)"/>
</g>
<defs>
<linearGradient id="paint0_linear_387_3456" x1="81.0355" y1="1.2158" x2="0.0085367" y2="80.0088" gradientUnits="userSpaceOnUse">
<stop stop-color="#F45634"/>
<stop offset="0.504" stop-color="#9D2161"/>
<stop offset="1" stop-color="#1E1C49"/>
</linearGradient>
<clipPath id="clip0_387_3456">
<rect width="80" height="80" fill="white"/>
</clipPath>
</defs>
</svg>
