<svg width="80" height="80" viewBox="0 0 80 80" fill="none" xmlns="http://www.w3.org/2000/svg">
<path d="M18.4763 57.125C18.2675 56.8727 17.968 56.7124 17.6423 56.6786C17.3165 56.6448 16.9905 56.7402 16.7344 56.9443C16.4782 57.1484 16.3124 57.4448 16.2726 57.7698C16.2327 58.0949 16.322 58.4226 16.5213 58.6825C19.2139 62.0548 22.5955 64.8134 26.44 66.7738C26.615 66.863 26.8086 66.9093 27.005 66.9088C27.2857 66.9085 27.5581 66.8137 27.7784 66.6398C27.9986 66.4659 28.154 66.2229 28.2194 65.95C28.2848 65.677 28.2564 65.39 28.1388 65.1352C28.0212 64.8803 27.8213 64.6724 27.5713 64.545C24.0459 62.7473 20.9451 60.2176 18.4763 57.125ZM20.0513 17.5925C17.8478 19.5536 15.9445 21.8279 14.4025 24.3425C14.2295 24.6253 14.1758 24.9652 14.2534 25.2876C14.331 25.6099 14.5335 25.8882 14.8163 26.0612C15.099 26.2343 15.439 26.2879 15.7613 26.2103C16.0837 26.1327 16.362 25.9303 16.535 25.6475C17.9488 23.3413 19.6937 21.2553 21.7138 19.4562C21.9614 19.2358 22.1113 18.926 22.1306 18.595C22.1498 18.264 22.0367 17.9389 21.8163 17.6912C21.5958 17.4436 21.286 17.2937 20.955 17.2745C20.624 17.2552 20.2989 17.3683 20.0513 17.5887V17.5925ZM65.83 28.61C66.0426 28.6105 66.2518 28.5568 66.4379 28.454C66.624 28.3511 66.7807 28.2025 66.8933 28.0222C67.006 27.8419 67.0707 27.6358 67.0815 27.4235C67.0923 27.2111 67.0488 26.9996 66.955 26.8088C65.9833 24.8287 64.7965 22.9616 63.4163 21.2412C63.2087 20.9827 62.907 20.8171 62.5774 20.781C62.2478 20.7449 61.9174 20.8412 61.6588 21.0488C61.4002 21.2563 61.2346 21.558 61.1985 21.8876C61.1624 22.2172 61.2587 22.5477 61.4663 22.8063C62.7335 24.3831 63.8234 26.0947 64.7163 27.91C64.8185 28.1187 64.9769 28.2947 65.1736 28.4184C65.3703 28.542 65.5977 28.6084 65.83 28.61ZM53.5075 65.4163C53.6758 65.7018 53.9506 65.9089 54.2715 65.9918C54.5924 66.0748 54.9331 66.027 55.2188 65.8587C58.637 63.846 61.6218 61.1748 64 58C64.1989 57.7348 64.2843 57.4014 64.2374 57.0732C64.1906 56.745 64.0152 56.4489 63.75 56.25C63.4848 56.0511 63.1514 55.9657 62.8232 56.0126C62.495 56.0594 62.1989 56.2348 62 56.5C59.819 59.4104 57.0819 61.859 53.9475 63.7038C53.8062 63.7873 53.6826 63.8978 53.584 64.0291C53.4854 64.1604 53.4136 64.3098 53.3727 64.4688C53.3319 64.6279 53.3228 64.7934 53.3459 64.956C53.369 65.1185 53.4239 65.2749 53.5075 65.4163ZM44.455 2.5H28.75C27.7555 2.5 26.8016 2.89509 26.0984 3.59835C25.3951 4.30161 25 5.25544 25 6.25V20.325C25 21.3196 25.3951 22.2734 26.0984 22.9767C26.8016 23.6799 27.7555 24.075 28.75 24.075H30.145C30.3958 24.7163 30.8341 25.267 31.4028 25.6552C31.9714 26.0435 32.644 26.2512 33.3325 26.2512C34.0211 26.2512 34.6936 26.0435 35.2623 25.6552C35.8309 25.267 36.2693 24.7163 36.52 24.075H49.22C49.4708 24.7163 49.9091 25.267 50.4778 25.6552C51.0464 26.0435 51.719 26.2512 52.4075 26.2512C53.0961 26.2512 53.7686 26.0435 54.3373 25.6552C54.9059 25.267 55.3443 24.7163 55.595 24.075H57.85C58.1815 24.075 58.4995 23.9433 58.7339 23.7089C58.9683 23.4745 59.1 23.1565 59.1 22.825V15.325C59.1006 15.1496 59.0636 14.9761 58.9913 14.8162L56.3025 8.7875C56.119 8.37652 55.821 8.02711 55.4442 7.78104C55.0673 7.53498 54.6276 7.40269 54.1775 7.4H48.205V6.25C48.205 5.25544 47.8099 4.30161 47.1067 3.59835C46.4034 2.89509 45.4496 2.5 44.455 2.5ZM45.705 21.575H36.5288C36.2783 20.9308 35.8391 20.3773 35.2686 19.987C34.6981 19.5968 34.0231 19.3879 33.3319 19.3879C32.6407 19.3879 31.9656 19.5968 31.3952 19.987C30.8247 20.3773 30.3855 20.9308 30.135 21.575H28.75C28.4185 21.575 28.1005 21.4433 27.8661 21.2089C27.6317 20.9745 27.5 20.6565 27.5 20.325V17.5H45.7L45.705 21.575ZM56.605 16.9875V21.575H55.605C55.3548 20.9307 54.9158 20.377 54.3454 19.9866C53.775 19.5962 53.0999 19.3873 52.4088 19.3873C51.7176 19.3873 51.0425 19.5962 50.4722 19.9866C49.9018 20.377 49.4627 20.9307 49.2125 21.575H48.2V16.9875H56.605ZM54.0613 9.9L56.1075 14.4875H48.205V9.9H54.0613ZM76.25 32.5H58.75C58.4185 32.5 58.1006 32.6317 57.8661 32.8661C57.6317 33.1005 57.5 33.4185 57.5 33.75V51.25C57.5 51.5815 57.6317 51.8995 57.8661 52.1339C58.1006 52.3683 58.4185 52.5 58.75 52.5H76.25C76.5815 52.5 76.8995 52.3683 77.1339 52.1339C77.3683 51.8995 77.5 51.5815 77.5 51.25V33.75C77.5 33.4185 77.3683 33.1005 77.1339 32.8661C76.8995 32.6317 76.5815 32.5 76.25 32.5ZM72.1125 39.0375C72.1125 39.2017 72.0802 39.3642 72.0174 39.5159C71.9545 39.6675 71.8625 39.8053 71.7464 39.9214C71.6303 40.0375 71.4925 40.1295 71.3409 40.1924C71.1892 40.2552 71.0267 40.2875 70.8625 40.2875H64.1375C63.806 40.2875 63.4881 40.1558 63.2536 39.9214C63.0192 39.687 62.8875 39.369 62.8875 39.0375V35H65.3875V37.7875H69.6125V35H72.1125V39.0375ZM3.75001 52.5H28.75C29.0815 52.5 29.3995 52.3683 29.6339 52.1339C29.8683 51.8995 30 51.5815 30 51.25V33.3475C30 33.1336 29.9451 32.9233 29.8406 32.7367C29.7361 32.5501 29.5855 32.3934 29.4031 32.2817C29.2208 32.1699 29.0128 32.1069 28.7991 32.0985C28.5854 32.0901 28.3731 32.1367 28.1825 32.2338L21.3463 35.7175L21.5563 33.4675C21.5775 33.2426 21.5374 33.0161 21.4402 32.8121C21.343 32.6081 21.1923 32.4343 21.0042 32.3092C20.8161 32.184 20.5976 32.1122 20.3719 32.1013C20.1462 32.0905 19.9218 32.141 19.7225 32.2475L12.2775 36.215L11.125 26.1087C11.0903 25.8034 10.9442 25.5215 10.7148 25.3169C10.4854 25.1124 10.1886 24.9996 9.88126 25H5.11251C4.80558 25.0002 4.50944 25.1133 4.28053 25.3178C4.05162 25.5222 3.90595 25.8038 3.87126 26.1087L2.50876 38.0413C2.5027 38.0881 2.49978 38.1353 2.50001 38.1825V51.25C2.50001 51.5815 2.63171 51.8995 2.86613 52.1339C3.10055 52.3683 3.41849 52.5 3.75001 52.5ZM23.75 43.75C23.9972 43.75 24.2389 43.8233 24.4445 43.9607C24.65 44.098 24.8103 44.2932 24.9049 44.5216C24.9995 44.7501 25.0242 45.0014 24.976 45.2439C24.9278 45.4863 24.8087 45.7091 24.6339 45.8839C24.4591 46.0587 24.2364 46.1777 23.9939 46.226C23.7514 46.2742 23.5001 46.2495 23.2717 46.1548C23.0433 46.0602 22.848 45.9 22.7107 45.6945C22.5733 45.4889 22.5 45.2472 22.5 45C22.5 44.6685 22.6317 44.3505 22.8661 44.1161C23.1005 43.8817 23.4185 43.75 23.75 43.75ZM16.25 43.75C16.4972 43.75 16.7389 43.8233 16.9445 43.9607C17.15 44.098 17.3103 44.2932 17.4049 44.5216C17.4995 44.7501 17.5242 45.0014 17.476 45.2439C17.4278 45.4863 17.3087 45.7091 17.1339 45.8839C16.9591 46.0587 16.7364 46.1777 16.4939 46.226C16.2514 46.2742 16.0001 46.2495 15.7717 46.1548C15.5433 46.0602 15.348 45.9 15.2107 45.6945C15.0733 45.4889 15 45.2472 15 45C15 44.6685 15.1317 44.3505 15.3661 44.1161C15.6006 43.8817 15.9185 43.75 16.25 43.75ZM8.75001 43.75C8.99724 43.75 9.23891 43.8233 9.44448 43.9607C9.65004 44.098 9.81025 44.2932 9.90486 44.5216C9.99947 44.7501 10.0242 45.0014 9.976 45.2439C9.92776 45.4863 9.80871 45.7091 9.6339 45.8839C9.45908 46.0587 9.23635 46.1777 8.99388 46.226C8.7514 46.2742 8.50007 46.2495 8.27166 46.1548C8.04325 46.0602 7.84803 45.9 7.71068 45.6945C7.57332 45.4889 7.50001 45.2472 7.50001 45C7.50001 44.6685 7.63171 44.3505 7.86613 44.1161C8.10055 43.8817 8.41849 43.75 8.75001 43.75ZM34.9688 66.8175C33.3571 67.8121 31.9996 69.1689 31.0043 70.78C30.0089 72.3912 29.4031 74.2124 29.235 76.0988C29.2158 76.2747 29.2337 76.4528 29.2876 76.6214C29.3416 76.79 29.4304 76.9454 29.5482 77.0775C29.6661 77.2096 29.8103 77.3155 29.9717 77.3883C30.1331 77.4611 30.308 77.4991 30.485 77.5H49.9288C50.1058 77.4991 50.2807 77.4611 50.4421 77.3883C50.6034 77.3155 50.7477 77.2096 50.8656 77.0775C50.9834 76.9454 51.0722 76.79 51.1262 76.6214C51.1801 76.4528 51.198 76.2747 51.1788 76.0988C51.0092 74.2123 50.4026 72.3913 49.4069 70.78C48.4112 69.1688 47.0539 67.8117 45.4425 66.8162C45.1983 66.6743 44.9146 66.6156 44.6341 66.649C44.3536 66.6823 44.0916 66.806 43.8875 67.0013C42.8441 67.8399 41.5456 68.2971 40.2069 68.2971C38.8682 68.2971 37.5697 67.8399 36.5263 67.0013C36.3217 66.8058 36.0592 66.6822 35.7782 66.649C35.4973 66.6159 35.2132 66.675 34.9688 66.8175ZM43.75 63.3862V58.5537C43.75 57.22 42.1625 56.1375 40.205 56.1375C38.2475 56.1375 36.6588 57.22 36.6588 58.5537V63.3862C36.6588 64.7212 38.2463 65.8025 40.205 65.8025C42.1638 65.8025 43.75 64.7212 43.75 63.3862Z" fill="url(#paint0_linear_387_3476)"/>
<defs>
<linearGradient id="paint0_linear_387_3476" x1="78.4719" y1="3.63981" x2="2.50915" y2="77.5094" gradientUnits="userSpaceOnUse">
<stop stop-color="#F45634"/>
<stop offset="0.504" stop-color="#9D2161"/>
<stop offset="1" stop-color="#1E1C49"/>
</linearGradient>
</defs>
</svg>
