<svg width="16" height="16" viewBox="0 0 16 16" fill="none" xmlns="http://www.w3.org/2000/svg">
<path fill-rule="evenodd" clip-rule="evenodd" d="M3.42109 1.43915C2.84883 1.83929 2.33135 2.31239 1.88213 2.84496C3.71785 2.67453 6.05007 2.95282 8.75775 4.30667C11.6492 5.75235 13.9775 5.80123 15.5979 5.48867C15.4509 5.04351 15.2658 4.61567 15.0465 4.20895C13.1916 4.40459 10.8136 4.14563 8.04223 2.75999C6.28239 1.88007 4.73111 1.5176 3.42109 1.43915ZM13.963 2.66666C12.4981 1.03 10.3694 0 7.99999 0C7.30419 0 6.62907 0.0888429 5.98547 0.255792C6.85715 0.493634 7.78315 0.841595 8.75775 1.32891C10.7868 2.34341 12.5386 2.67006 13.963 2.66666ZM15.9444 7.05123C13.9868 7.43779 11.2835 7.35839 8.04223 5.73775C5.01199 4.22263 2.60017 4.24171 0.973561 4.60319C0.889601 4.62183 0.807617 4.64143 0.727613 4.66183C0.514648 5.12499 0.344654 5.61203 0.222681 6.11779C0.352955 6.08299 0.487572 6.04991 0.626464 6.01903C2.59983 5.58051 5.38803 5.59955 8.75775 7.28443C11.788 8.79956 14.1998 8.78048 15.8265 8.419C15.8822 8.40664 15.9371 8.39384 15.9911 8.38064C15.997 8.25452 16 8.1276 16 8C16 7.679 15.9811 7.36239 15.9444 7.05123ZM15.7299 10.0689C13.7913 10.4078 11.1668 10.2778 8.04223 8.71552C5.01199 7.20039 2.60017 7.21948 0.973561 7.58096C0.6125 7.66116 0.287696 7.75888 0.001172 7.86204C0.0003908 7.90792 0 7.95392 0 8C0 12.4183 3.58172 16 7.99999 16C11.7028 16 14.8181 13.4844 15.7299 10.0689Z" fill="url(#paint0_linear_621_1466)"/>
<defs>
<linearGradient id="paint0_linear_621_1466" x1="16.2073" y1="0.243161" x2="0.0019421" y2="16.002" gradientUnits="userSpaceOnUse">
<stop stop-color="#F45634"/>
<stop offset="0.504" stop-color="#9D2161"/>
<stop offset="1" stop-color="#1E1C49"/>
</linearGradient>
</defs>
</svg>
