<svg width="80" height="80" viewBox="0 0 80 80" fill="none" xmlns="http://www.w3.org/2000/svg">
<path d="M48.3477 14.4679C48.3477 11.9019 50.4307 9.81885 52.9967 9.81885C55.5628 9.81885 57.6458 11.9019 57.6458 14.4679C57.6458 16.5056 56.3326 18.2113 54.5061 18.8453V20.0226H60.3326C61.1628 20.0226 61.842 20.7019 61.842 21.5321V27.1622C61.842 27.9924 61.1628 28.6717 60.3326 28.6717C59.4873 28.6717 58.8231 27.9924 58.8231 27.1622V23.0415H52.9967C52.1665 23.0415 51.4873 22.3622 51.4873 21.5321V18.8453C49.676 18.2113 48.3477 16.5056 48.3477 14.4679Z" fill="url(#paint0_linear_301_2904)"/>
<path d="M73.8263 72.4453H66.747C66.747 69.4114 63.7432 67.0415 59.9093 67.0415C59.0388 67.0395 58.1733 67.1718 57.3432 67.434C56.3017 65.5472 53.9168 64.234 51.1093 64.234C50.2489 64.234 49.4036 64.3699 48.6187 64.6114C48.3621 64.0227 47.9999 63.4642 47.547 62.951H71.5772C72.4225 62.951 73.0866 62.2717 73.0866 61.4416V27.1019C74.0009 26.7905 74.7949 26.2011 75.3578 25.4163C75.9208 24.6315 76.2244 23.6904 76.2263 22.7246C76.2263 20.1585 74.1432 18.0755 71.5772 18.0755C70.4799 18.0763 69.4184 18.466 68.5811 19.1754C67.7439 19.8848 67.1852 20.8679 67.0042 21.9502C66.8233 23.0325 67.0317 24.1439 67.5926 25.0871C68.1534 26.0303 69.0304 26.7441 70.0678 27.1019V59.9321H41.5848V52.717C44.9357 53.3812 51.1546 54 55.6074 50.8453C59.7734 47.9019 61.3432 42.3774 61.9319 38.9057C62.2338 37.1095 61.0263 35.4038 59.2451 35.0868C55.7734 34.4982 50.0376 34.1359 45.8715 37.0793C43.9093 38.4529 42.5659 40.4 41.5848 42.4378V13.5623C43.3961 12.9283 44.7244 11.2227 44.7244 9.18495C44.7244 6.61891 42.6414 4.53589 40.0753 4.53589C37.5093 4.53589 35.4263 6.61891 35.4263 9.18495C35.4263 11.2227 36.7395 12.9283 38.5659 13.5623V42.7095C37.5848 40.5812 36.1961 38.5283 34.1583 37.0793C29.9923 34.1359 24.2565 34.4982 20.7848 35.0868C19.9233 35.2394 19.1572 35.7267 18.6538 36.4422C18.1504 37.1577 17.9506 38.0433 18.098 38.9057C18.6715 42.3774 20.2414 47.9019 24.4074 50.8453C28.9357 54.0453 35.2451 53.3661 38.5659 52.6868V59.9321H9.93193V27.1019C10.8462 26.7905 11.6402 26.2011 12.2031 25.4163C12.766 24.6315 13.0697 23.6904 13.0715 22.7246C13.0715 20.1585 10.9885 18.0755 8.42249 18.0755C5.85646 18.0755 3.77344 20.1585 3.77344 22.7246C3.77344 24.7623 5.10174 26.468 6.91306 27.1019V61.4416C6.91306 62.2717 7.5923 62.951 8.42249 62.951H32.6187C32.181 63.4642 31.7885 64.0076 31.5319 64.5963C30.747 64.3548 29.9168 64.234 29.0414 64.234C26.2338 64.234 23.8489 65.5472 22.8074 67.434C21.9923 67.1774 21.1168 67.0415 20.2263 67.0415C16.4678 67.0415 13.4036 69.4717 13.4036 72.4453H6.29419C5.464 72.4453 4.78476 73.1246 4.78476 73.9548C4.78476 74.7849 5.464 75.4642 6.29419 75.4642H73.8263C74.6564 75.4642 75.3357 74.7849 75.3357 73.9548C75.3357 73.1246 74.6564 72.4453 73.8263 72.4453ZM41.5848 48.4755L49.8414 42.3472C49.9995 42.2271 50.1799 42.1396 50.3721 42.0897C50.5643 42.0399 50.7645 42.0287 50.961 42.0567C51.1576 42.0848 51.3466 42.1516 51.5172 42.2533C51.6877 42.355 51.8364 42.4895 51.9546 42.6491C52.4527 43.3132 52.3168 44.2642 51.6376 44.7623L41.5848 52.234V48.4755ZM28.3923 44.7623C28.2319 44.645 28.0964 44.4971 27.9935 44.3271C27.8906 44.157 27.8225 43.9683 27.793 43.7718C27.7635 43.5753 27.7733 43.3749 27.8218 43.1822C27.8702 42.9895 27.9564 42.8083 28.0753 42.6491C28.5734 41.9849 29.5093 41.8491 30.1885 42.3472L38.5659 48.5661V52.3246L28.3923 44.7623Z" fill="url(#paint1_linear_301_2904)"/>
<path d="M18.3096 27.1622V21.5321C18.3096 20.7019 18.9888 20.0226 19.819 20.0226H25.6454V18.8453C24.7312 18.5338 23.9371 17.9445 23.3742 17.1597C22.8113 16.3748 22.5077 15.4337 22.5058 14.4679C22.5058 11.9019 24.5888 9.81885 27.1549 9.81885C29.7209 9.81885 31.8039 11.9019 31.8039 14.4679C31.8039 16.5056 30.4756 18.2113 28.6643 18.8453V21.5321C28.6643 22.3622 27.985 23.0415 27.1549 23.0415H21.3284V27.1622C21.3284 27.9924 20.6643 28.6717 19.819 28.6717C18.9888 28.6717 18.3096 27.9924 18.3096 27.1622Z" fill="url(#paint2_linear_301_2904)"/>
<defs>
<linearGradient id="paint0_linear_301_2904" x1="62.0169" y1="10.1054" x2="44.1034" y2="22.574" gradientUnits="userSpaceOnUse">
<stop stop-color="#F45634"/>
<stop offset="0.504" stop-color="#9D2161"/>
<stop offset="1" stop-color="#1E1C49"/>
</linearGradient>
<linearGradient id="paint1_linear_301_2904" x1="77.1652" y1="5.61382" x2="5.29991" y2="77.0009" gradientUnits="userSpaceOnUse">
<stop stop-color="#F45634"/>
<stop offset="0.504" stop-color="#9D2161"/>
<stop offset="1" stop-color="#1E1C49"/>
</linearGradient>
<linearGradient id="paint2_linear_301_2904" x1="31.9788" y1="10.1054" x2="14.0653" y2="22.574" gradientUnits="userSpaceOnUse">
<stop stop-color="#F45634"/>
<stop offset="0.504" stop-color="#9D2161"/>
<stop offset="1" stop-color="#1E1C49"/>
</linearGradient>
</defs>
</svg>
