<svg width="80" height="62" viewBox="0 0 80 62" fill="none" xmlns="http://www.w3.org/2000/svg">
<g clip-path="url(#clip0_301_2895)">
<path d="M75.7492 18.5381C73.2825 15.1 69.7111 11.7571 65.4206 8.87143C57.4111 3.48254 47.4333 0 40 0C32.5667 0 22.5889 3.48254 14.5794 8.87143C10.2889 11.7571 6.71746 15.1 4.25079 18.5381C1.43016 22.4683 0 26.5111 0 30.554C0 34.6175 1.33968 38.6556 3.98254 42.5556C6.33651 46.0302 9.75873 49.3762 13.881 52.2317C21.7841 57.7063 31.7921 61.1079 40 61.1079C48.2079 61.1079 58.2159 57.7063 66.119 52.2317C70.2413 49.3762 73.6635 46.0302 76.0175 42.5556C78.6603 38.6556 80 34.6175 80 30.554C80 26.5111 78.5698 22.4683 75.7492 18.5381ZM72.1762 28.7683C71.8302 29.1524 70.9683 29.154 69.8714 28.773C68.5603 28.3175 67.0889 27.3937 65.7238 26.1683C62.7111 23.4619 61.7873 20.7698 62.4492 20.0317C62.6238 19.8381 62.927 19.7413 63.3254 19.7413C63.7206 19.7413 64.2095 19.8365 64.7556 20.027C66.0651 20.481 67.5381 21.4063 68.9016 22.6317C71.9143 25.3381 72.8397 28.0286 72.1762 28.7683ZM29.8365 45.5254C29.9317 45.4603 30.0571 45.4286 30.2095 45.4286C31.0143 45.4286 32.5397 46.3429 33.8556 48.2571C35.4206 50.5365 35.5571 52.5825 34.9635 52.9889C34.6603 53.1984 34.0714 53.0841 33.3905 52.681C32.5429 52.1794 31.6746 51.319 30.9444 50.2571C30.2159 49.1952 29.7238 48.0746 29.5603 47.1048C29.4286 46.3238 29.5317 45.7349 29.8365 45.5254ZM54.2857 15.9111C53.9619 18.2222 52.9349 20.9667 51.3937 23.6365C49.8508 26.3079 47.9889 28.5698 46.1476 30.0048C44.4873 31.3 43.0413 31.7587 42.1841 31.2635C41.3254 30.7683 41 29.2873 41.2921 27.2016C41.6143 24.8889 42.6413 22.146 44.1841 19.4746C45.7254 16.8032 47.5889 14.5413 49.4286 13.1063C50.6524 12.1524 51.7571 11.6524 52.5984 11.6524C52.9 11.6524 53.1667 11.7159 53.3937 11.8476C54.2524 12.3429 54.5762 13.8238 54.2857 15.9111ZM36.9095 20.1143C37.5571 20.1143 38.281 21.3206 38.281 22.9333C38.281 24.546 37.5571 25.7508 36.9095 25.7508C36.2619 25.7508 35.5381 24.546 35.5381 22.9333C35.5381 21.3206 36.2619 20.1143 36.9095 20.1143ZM61.3444 15.0905C60.8365 16.1175 59.9714 16.6444 59.5413 16.4317C59.3492 16.3365 59.219 16.0794 59.1841 15.7238C59.1365 15.2635 59.2571 14.7016 59.5127 14.1841C59.946 13.3095 60.6365 12.7968 61.0984 12.7968C61.1794 12.7968 61.2524 12.8127 61.3159 12.8429C61.5079 12.9381 61.6381 13.1952 61.673 13.5508C61.7206 14.0111 61.6 14.573 61.3444 15.0905ZM62.5238 24.5206C62.8825 25.0222 63.3016 25.5302 63.773 26.0333C63.219 27.054 62.1619 28.2333 60.8619 29.2619C59.6444 30.227 58.3667 30.9492 57.2635 31.2952C56.2921 31.6016 55.6921 31.5302 55.5286 31.3238C55.1714 30.873 55.9857 28.7984 58.7556 26.6032C60.0349 25.5905 61.4111 24.8333 62.5238 24.5206ZM48.6476 12.1048C48.0429 12.5778 47.4381 13.1302 46.8413 13.7524L38.9317 10.7032C38.6048 10.5778 38.2365 10.7397 38.1111 11.0683C37.9841 11.3952 38.1476 11.7619 38.4746 11.8889L45.9333 14.7619C45.2698 15.546 44.6254 16.4063 44.0159 17.3302C42.6302 17.1206 41.1556 16.7238 39.7238 16.1714C37.1889 15.1952 34.9873 13.8317 33.5254 12.3333C32.2048 10.9778 31.654 9.6619 32.0175 8.71905C32.7444 6.83492 37.2222 6.24286 42.7317 8.36508C45.154 9.3 47.3048 10.6127 48.7508 12.0286C48.7175 12.054 48.6825 12.0778 48.6476 12.1048ZM26.9857 9.52063C26.6095 10.1508 25.9349 10.8206 25.1365 11.3587C23.4587 12.4921 21.9254 12.6222 21.6492 12.2127C21.5222 12.0238 21.619 11.6016 21.8968 11.1365C22.273 10.5063 22.9476 9.83651 23.746 9.29841C24.5444 8.75873 25.419 8.38571 26.1429 8.27143C26.2952 8.24921 26.4381 8.23651 26.5683 8.23651C26.8968 8.23651 27.1413 8.30952 27.2333 8.44444C27.2333 8.44444 27.2333 8.44444 27.2333 8.44603C27.3603 8.63333 27.2635 9.05556 26.9857 9.52063ZM24.6952 17.3095C24.8333 17.2619 24.981 17.2397 25.1381 17.2397C27.0794 17.2397 30.2651 20.8095 32.2175 26.6048C34.3254 32.8651 33.7175 37.9286 31.8508 38.5571C29.9857 39.1857 26.4365 35.5222 24.3286 29.2619C23.9175 28.0429 23.6111 26.8698 23.3952 25.7651C23.3952 25.7635 23.3952 25.7603 23.3952 25.7587C22.5063 21.1952 23.1937 17.8143 24.6952 17.3095ZM20.1714 38.5889C21.5286 36.2381 23.2032 34.3159 24.6714 33.3921C25.319 34.6762 26.0365 35.8333 26.7968 36.8095C26.4206 38.2317 25.7635 39.7794 24.881 41.3079C23.7524 43.2619 22.4064 44.9254 21.0921 45.9889C19.9873 46.8841 18.9857 47.2556 18.4762 46.9619C17.9683 46.6682 17.7889 45.6143 18.0111 44.2095C18.2762 42.5397 19.0429 40.5429 20.1714 38.5889ZM17.1032 33.7556C17.4905 33.7889 17.8857 34.2524 18.1651 34.9952C18.5095 35.9127 18.6365 37.1175 18.5238 38.3889C18.5 38.646 18.4651 38.9032 18.4238 39.1571C17.9048 40.1905 17.4857 41.2222 17.1841 42.2048C16.981 42.4349 16.6492 42.7286 16.3079 42.6984C15.9222 42.6635 15.5254 42.2 15.246 41.4587C14.9032 40.5397 14.7746 39.3349 14.8889 38.0651C15.0016 36.7936 15.3397 35.6302 15.8397 34.7873C16.2444 34.1063 16.719 33.7206 17.1032 33.7556ZM38.0429 37.6587C37.9476 36.654 38.1667 35.9016 38.6444 35.5937C39.1222 35.2873 39.8984 35.4016 40.7714 35.9063C41.7889 36.4936 42.7968 37.5143 43.6079 38.7778C44.1032 39.5476 44.4889 40.3587 44.7397 41.146C44.0825 41.6349 43.481 42.1365 42.9492 42.646C42.4921 43.0841 42.1 43.519 41.7667 43.946C40.9397 43.3413 40.1397 42.4667 39.4746 41.4317C38.6635 40.1683 38.1556 38.8286 38.0429 37.6587ZM51.0921 54.7698C51.0921 55.4175 49.446 56.3587 46.8667 56.3587C44.2857 56.3587 42.6397 55.4175 42.6397 54.7698C42.6397 54.1206 44.2857 53.1794 46.8667 53.1794C49.446 53.1794 51.0921 54.1206 51.0921 54.7698ZM62.573 42.2984C60.7365 44.0603 58.0079 45.7381 54.8889 47.0238C48.1952 49.7841 42.6397 49.5508 41.8429 47.6143C41.4397 46.6365 42.1635 45.1587 43.8286 43.5619C45.6651 41.8 48.3937 40.1222 51.5127 38.8365C54.6317 37.5492 57.7508 36.8175 60.2937 36.7714C60.3746 36.7698 60.4556 36.7698 60.5349 36.7698C62.7095 36.7698 64.1698 37.3032 64.5587 38.246C64.9619 39.2238 64.2381 40.7016 62.573 42.2984ZM69.5064 40.4952C69.3317 40.3873 69.2476 40.0429 69.2841 39.5936C69.3333 38.9825 69.6032 38.2429 70.0222 37.5651C70.7746 36.3508 71.7254 35.7444 72.2143 35.7444C72.2952 35.7444 72.3619 35.7619 72.4159 35.7936C72.7889 36.0254 72.773 37.3111 71.8984 38.7254C71.4778 39.4032 70.9365 39.9746 70.4111 40.2921C70.027 40.5254 69.6794 40.6032 69.5064 40.4952ZM20.5698 20.8429C20.9667 21.0127 21.3556 21.2 21.7349 21.3937C21.6984 22.4603 21.7714 23.6222 21.9508 24.8397L17.4095 22.8968C17.0873 22.7587 16.7127 22.9095 16.5762 23.2317C16.4381 23.554 16.5873 23.927 16.9095 24.0651L22.2159 26.3333C22.4048 27.2429 22.6476 28.173 22.9413 29.1063C21.3016 29.0159 19.4413 28.554 17.6079 27.7698C15.7238 26.9635 14.0556 25.8968 12.8444 24.7302C13.2286 24.3048 13.6016 23.8587 13.9619 23.3937C14.9302 22.1429 15.7222 20.8651 16.3317 19.619C17.6937 19.8175 19.1492 20.2349 20.5698 20.8429ZM12.9952 26.5381C14.0746 27.6905 15.0683 29.1635 15.8667 30.8032C16.146 31.3762 16.3937 31.9571 16.6095 32.5381C15.9222 32.7032 15.2762 33.2524 14.7492 34.1397C14.5841 34.4159 14.4365 34.7222 14.3032 35.0476L11.8762 30.0698C11.7222 29.7556 11.3429 29.6238 11.027 29.7778C10.7127 29.9317 10.581 30.3111 10.7349 30.627L13.7746 36.8619C13.7079 37.2159 13.6571 37.581 13.6238 37.9524C13.5571 38.6968 13.5667 39.427 13.6444 40.1095C11.946 39.0635 10.1556 36.8889 8.85397 34.2222C8.00159 32.473 7.42857 30.6397 7.21746 29.0032C7.44127 28.9079 7.66825 28.8048 7.89841 28.6873C9.26508 27.9921 10.6587 26.946 11.9683 25.6492C12.2841 25.9524 12.627 26.2492 12.9952 26.5381ZM2.38413 24.5635C4.45714 19.0206 9.04127 14.5873 12.8841 11.6492C13.7254 11.3968 14.8476 11.246 15.6317 11.8524C17.3397 13.173 16.673 17.8143 12.9571 22.6159C11.2508 24.8222 9.25079 26.5762 7.32222 27.5556C5.56984 28.446 4.07143 28.5762 3.21111 27.9095C2.4619 27.3302 2.17143 26.1429 2.39048 24.5635H2.38413Z" fill="url(#paint0_linear_301_2895)"/>
<path d="M58.8459 39.9159L47.0697 44.7714C46.7459 44.9048 46.5919 45.2762 46.7253 45.6C46.8269 45.846 47.0634 45.9937 47.3126 45.9937C47.3935 45.9937 47.4745 45.9778 47.5539 45.946L59.3316 41.0889C59.6554 40.9556 59.8094 40.5841 59.6761 40.2603C59.5427 39.9365 59.1713 39.781 58.8459 39.9159ZM50.6856 16.5365C50.3824 16.3619 49.9935 16.4651 49.8189 16.7699L46.4427 22.6159C46.2681 22.9191 46.3729 23.3079 46.6761 23.4826C46.7761 23.5397 46.8856 23.5683 46.9919 23.5683C47.2126 23.5683 47.4253 23.454 47.5427 23.2508L50.9189 17.4048C51.0935 17.1 50.9904 16.7127 50.6856 16.5365ZM28.1792 29.6429C28.2681 29.9079 28.5158 30.0746 28.7808 30.0746C28.8475 30.0746 28.9158 30.0651 28.9824 30.0413C29.3158 29.9302 29.4935 29.5699 29.3824 29.2381L27.2269 22.8397C27.1158 22.5079 26.7554 22.3286 26.4237 22.4413C26.0904 22.5524 25.9126 22.9127 26.0237 23.246L28.1792 29.6429ZM6.49829 23.6587C6.61417 23.7492 6.75067 23.7921 6.88718 23.7921C7.07607 23.7921 7.26496 23.7064 7.39036 23.546L12.4586 16.9937C12.6729 16.7159 12.6221 16.3175 12.3443 16.1032C12.0665 15.8889 11.6681 15.9397 11.4539 16.2159L6.3856 22.7683C6.17131 23.046 6.2221 23.4445 6.49829 23.6587Z" fill="url(#paint1_linear_301_2895)"/>
</g>
<defs>
<linearGradient id="paint0_linear_301_2895" x1="81.0367" y1="0.92869" x2="20.882" y2="77.5106" gradientUnits="userSpaceOnUse">
<stop stop-color="#F45634"/>
<stop offset="0.504" stop-color="#9D2161"/>
<stop offset="1" stop-color="#1E1C49"/>
</linearGradient>
<linearGradient id="paint1_linear_301_2895" x1="60.417" y1="16.4268" x2="34.0711" y2="62.0557" gradientUnits="userSpaceOnUse">
<stop stop-color="#F45634"/>
<stop offset="0.504" stop-color="#9D2161"/>
<stop offset="1" stop-color="#1E1C49"/>
</linearGradient>
<clipPath id="clip0_301_2895">
<rect width="80" height="61.1079" fill="white"/>
</clipPath>
</defs>
</svg>
