<svg width="80" height="80" viewBox="0 0 80 80" fill="none" xmlns="http://www.w3.org/2000/svg">
<path d="M74.2497 71.122C74.1891 71.0764 74.1404 71.0167 74.1077 70.9482C74.0751 70.8796 74.0595 70.8042 74.0622 70.7283C74.704 56.1385 72.9808 37.3749 71.626 30.9928C63.3447 33.5964 53.3905 34.9014 42.5479 34.9014C32.2946 34.9014 21.2469 33.7355 10.0588 31.3983C9.4909 31.287 8.93037 31.1408 8.38037 30.9608C7.02443 37.311 5.29443 56.1138 5.93725 70.7283C5.94003 70.8042 5.92443 70.8796 5.89178 70.9482C5.85914 71.0167 5.81041 71.0764 5.74975 71.122C4.66178 71.9644 3.34709 74.1284 4.09818 75.2969C4.8749 76.505 6.60146 75.7914 7.72318 75.757C15.0182 75.5344 22.3951 78.7488 39.9994 78.7488C57.6038 78.7488 64.9807 75.5344 72.2757 75.757C73.3971 75.7914 75.1236 76.505 75.9007 75.2969C76.6518 74.1284 75.3371 71.9644 74.2497 71.122ZM49.4347 68.622C49.4347 68.622 46.9676 67.4924 46.3004 67.0049C43.6355 65.0578 41.9015 64.4141 40.7026 64.602V60.4833C41.2329 59.7077 41.8265 58.9773 42.4774 58.2997C43.1654 58.5758 43.9073 58.6912 44.6466 58.6373C45.3859 58.5833 46.1032 58.3613 46.7438 57.9883C48.5752 56.9381 49.6646 54.7417 50.1257 53.6116C50.161 53.5246 50.1764 53.4308 50.1705 53.3371C50.1646 53.2435 50.1377 53.1523 50.0918 53.0704C50.0459 52.9886 49.9821 52.9181 49.9053 52.8642C49.8284 52.8104 49.7403 52.7746 49.6477 52.7594C48.429 52.5594 45.9446 52.3375 44.1074 53.3903C43.43 53.7745 42.8539 54.3147 42.4269 54.9659C41.9999 55.6172 41.7342 56.3609 41.6519 57.1353C41.3182 57.461 41.0014 57.8035 40.7026 58.1614V51.5895C41.3046 51.133 41.7926 50.543 42.128 49.8659C42.4634 49.1888 42.6371 48.4431 42.6355 47.6875C42.6438 45.5764 41.2882 43.5336 40.5408 42.5686C40.4834 42.4943 40.4099 42.4339 40.3259 42.392C40.2419 42.35 40.1495 42.3275 40.0556 42.3263C39.9617 42.325 39.8687 42.345 39.7836 42.3847C39.6984 42.4244 39.6234 42.4827 39.564 42.5555C38.7801 43.5106 37.3437 45.5491 37.3354 47.667C37.3283 48.4348 37.5021 49.1935 37.8426 49.8816C38.1832 50.5698 38.681 51.1681 39.2957 51.6281V58.1594C38.9975 57.8023 38.6812 57.4606 38.3482 57.1356C38.2659 56.3612 38.0003 55.6175 37.5732 54.9663C37.1462 54.315 36.5701 53.7749 35.8927 53.3906C34.0554 52.3372 31.5718 52.5597 30.3524 52.7597C30.2597 52.7747 30.1716 52.8104 30.0946 52.8643C30.0176 52.9181 29.9537 52.9885 29.9078 53.0705C29.8619 53.1524 29.835 53.2436 29.8292 53.3374C29.8234 53.4311 29.8389 53.5249 29.8744 53.6119C30.3355 54.742 31.4249 56.9385 33.2563 57.9886C33.8968 58.3615 34.6139 58.5834 35.3531 58.6374C36.0923 58.6914 36.8341 58.576 37.5219 58.3C38.1721 58.9768 38.7651 59.7062 39.2949 60.4808V65.2681C38.874 65.4869 38.7665 65.3525 38.0052 65.3333C37.0146 65.3099 36.0208 65.9708 34.988 66.9067C33.9591 67.8408 31.7055 69.3599 31.6888 69.3719C28.7345 67.5873 26.4335 64.8989 25.1263 61.7045C23.8192 58.5102 23.5755 54.9798 24.4313 51.6362C25.2872 48.2925 27.197 45.3134 29.8781 43.1399C32.5591 40.9663 35.8689 39.714 39.3172 39.5682C42.7656 39.4225 46.1692 40.3911 49.0241 42.3306C51.879 44.2702 54.0334 47.0775 55.1684 50.337C56.3033 53.5965 56.3583 57.1349 55.3254 60.4281C54.2925 63.7214 52.2265 66.5944 49.4333 68.6219L49.4347 68.622ZM12.4546 13.3469C29.2501 18.3567 54.8108 18.4605 68.2715 13.5731C68.4674 13.502 68.6647 13.4263 68.8627 13.3491C67.8526 11.5191 65.8002 10.1133 62.741 9.16736C61.9049 8.91099 61.1444 8.45346 60.5262 7.83486C57.8022 5.08611 54.9379 2.82642 47.4058 2.99111H47.393C47.0158 2.99111 46.2354 2.63861 45.4097 2.26564C44.0408 1.6472 42.1662 0.800482 40.0713 0.588294L40.043 0.585951C31.5024 0.0689194 26.9294 3.64392 24.4726 5.5647C23.9493 5.97376 23.356 6.43767 23.1576 6.47876C21.996 6.64548 18.0307 7.31126 15.7715 8.87501C14.6321 9.66361 13.5949 10.6291 11.7904 13.0978C11.9088 13.146 12.0101 13.1869 12.0849 13.217C12.2099 13.2675 12.3307 13.31 12.4546 13.3469ZM27.821 13.8027C27.821 14.3603 27.5121 14.5114 27.2272 14.5549C26.7996 14.6199 26.2547 14.3603 26.2547 13.8027C26.2547 13.245 26.5335 13.0519 26.9662 13.0519C27.3988 13.0519 27.821 13.2449 27.821 13.8027ZM26.0329 7.63204C26.5518 7.63204 26.8297 7.96673 26.8297 8.48564C26.8297 9.00454 26.6457 9.26689 26.1266 9.26689C25.6076 9.26689 25.0935 9.09064 25.0935 8.57173C25.0935 8.32257 25.1925 8.0836 25.3686 7.90738C25.5448 7.73117 25.7837 7.63213 26.0329 7.63204ZM23.4499 10.3244C23.8826 10.3244 24.3054 10.5175 24.3054 11.0752C24.3054 11.6328 23.9965 11.7839 23.7116 11.8274C23.284 11.8924 22.7391 11.633 22.7391 11.0752C22.7391 10.5174 23.0172 10.3244 23.4499 10.3244ZM21.5705 13.0519C22.0032 13.0519 22.426 13.2449 22.426 13.8027C22.426 14.3605 22.1171 14.5114 21.8322 14.5549C21.4046 14.6199 20.8597 14.3603 20.8597 13.8027C20.8597 13.245 21.1379 13.0519 21.5705 13.0519ZM18.548 10.6341C19.073 10.4566 19.651 10.6541 19.8283 11.1791C20.0057 11.7041 19.8897 12.1702 19.3647 12.3477C19.1128 12.4327 18.8374 12.4142 18.599 12.2962C18.3606 12.1783 18.1788 11.9706 18.0935 11.7188C17.9152 11.1931 18.0229 10.8116 18.548 10.6341Z" fill="url(#paint0_linear_299_2844)"/>
<path d="M6.40625 26.875C6.40625 27.785 6.60031 28.4616 6.90953 28.9736C7.2725 29.1005 7.64031 29.2245 7.97562 29.3377C8.27391 29.4383 8.54797 29.5306 8.77453 29.6102C9.28894 29.7816 9.81402 29.9191 10.3464 30.0219C33.1638 34.7875 55.3655 34.6469 71.2592 29.6345C71.7197 29.4892 72.35 29.2644 72.9636 29.0105C73.0926 28.6286 73.152 28.2266 73.1391 27.8238C73.1124 25.0506 70.6877 24.8903 72.1563 21.7375C72.845 20.2589 73.4895 19.5313 73.1677 17.2673C72.9992 16.0831 71.8205 14.7005 70.3692 14.2488C69.8239 14.4847 69.2839 14.7019 68.7516 14.895C62.1563 17.2895 52.6778 18.6064 42.0469 18.6064H41.875C31.0525 18.5919 20.4619 17.2027 12.0539 14.6945C11.8866 14.6448 11.7217 14.587 11.56 14.5214C11.0595 14.3196 10.5603 14.1146 10.0625 13.9062C8.79203 14.1831 7.51219 15.1039 7.29125 17.2402C7.22987 17.9238 7.30425 18.6129 7.51011 19.2677C7.71597 19.9225 8.04925 20.5302 8.49078 21.0558C8.67124 21.2531 8.7965 21.4944 8.85394 21.7556C8.91138 22.0167 8.89897 22.2883 8.81797 22.5431C8.36719 23.8061 6.40625 24.1145 6.40625 26.875Z" fill="url(#paint1_linear_299_2844)"/>
<defs>
<linearGradient id="paint0_linear_299_2844" x1="77.0581" y1="1.72405" x2="-1.736" y2="72.4999" gradientUnits="userSpaceOnUse">
<stop stop-color="#F45634"/>
<stop offset="0.504" stop-color="#9D2161"/>
<stop offset="1" stop-color="#1E1C49"/>
</linearGradient>
<linearGradient id="paint1_linear_299_2844" x1="74.1192" y1="14.204" x2="63.1502" y2="50.5993" gradientUnits="userSpaceOnUse">
<stop stop-color="#F45634"/>
<stop offset="0.504" stop-color="#9D2161"/>
<stop offset="1" stop-color="#1E1C49"/>
</linearGradient>
</defs>
</svg>
