<svg width="243" height="40" viewBox="0 0 243 40" fill="none" xmlns="http://www.w3.org/2000/svg">
<path fill-rule="evenodd" clip-rule="evenodd" d="M8.55273 3.59788C7.12207 4.59824 5.82837 5.78099 4.70532 7.11241C9.29462 6.68634 15.1252 7.38206 21.8944 10.7667C29.123 14.3809 34.9438 14.5031 38.9948 13.7217C38.6272 12.6088 38.1644 11.5392 37.6163 10.5224C32.979 11.0115 27.034 10.3641 20.1056 6.89999C15.706 4.70019 11.8278 3.79402 8.55273 3.59788ZM34.9074 6.66666C31.2453 2.57501 25.9234 1.52588e-05 20 1.52588e-05C18.2605 1.52588e-05 16.5727 0.222122 14.9637 0.639495C17.1429 1.2341 19.4579 2.104 21.8944 3.32228C26.967 5.85854 31.3464 6.67517 34.9074 6.66666ZM39.8609 17.6281C34.9669 18.5945 28.2088 18.396 20.1056 14.3444C12.53 10.5566 6.50043 10.6043 2.4339 11.508C2.224 11.5546 2.01904 11.6036 1.81903 11.6546C1.28662 12.8125 0.861634 14.0301 0.556702 15.2945C0.882386 15.2075 1.21893 15.1248 1.56616 15.0476C6.49957 13.9513 13.4701 13.9989 21.8944 18.2111C29.4701 21.9989 35.4996 21.9512 39.5662 21.0475C39.7055 21.0166 39.8428 20.9846 39.9778 20.9516C39.9926 20.6363 40 20.319 40 20C40 19.1975 39.9528 18.406 39.8609 17.6281ZM39.3248 25.1723C34.4783 26.0196 27.917 25.6944 20.1056 21.7888C12.53 18.001 6.50043 18.0487 2.4339 18.9524C1.53125 19.1529 0.719239 19.3972 0.00293 19.6551C0.000977 19.7698 0 19.8848 0 20C0 31.0457 8.95429 40 20 40C29.2571 40 37.0453 33.7109 39.3248 25.1723Z" fill="url(#paint0_linear_33_11)"/>
<path d="M53.1335 0.251402H55.7912L62.0403 15.5151H62.2558L68.505 0.251402H71.1626V18.6396H69.0796V4.66889H68.9L63.1537 18.6396H61.1425L55.3962 4.66889H55.2166V18.6396H53.1335V0.251402Z" fill="#281C49"/>
<path d="M82.201 18.6396V0.251402H93.2986V2.2267H84.4277V8.43991H92.724V10.4152H84.4277V16.6643H93.4423V18.6396H82.201Z" fill="#281C49"/>
<path d="M102.88 2.2267V0.251402H116.671V2.2267H110.889V18.6396H108.663V2.2267H102.88Z" fill="#281C49"/>
<path d="M125.288 18.6396H122.953L129.705 0.251402H132.004L138.756 18.6396H136.421L130.926 3.16048H130.783L125.288 18.6396ZM127.838 11.4567H133.872L134.573 13.432H127.137L127.838 11.4567Z" fill="#281C49"/>
<path d="M148.194 18.6396V0.251402H150.42V16.6643H158.968V18.6396H148.194Z" fill="#281C49"/>
<path d="M168.99 18.6396V0.251402H171.216V16.6643H179.764V18.6396H168.99Z" fill="#281C49"/>
<path d="M192.012 0.251402V18.6396H189.786V0.251402H192.012Z" fill="#281C49"/>
<path d="M217.848 5.99773H215.621C215.489 5.35725 215.259 4.79459 214.93 4.30974C214.606 3.8249 214.211 3.41787 213.744 3.08865C213.283 2.75345 212.772 2.50204 212.209 2.33444C211.646 2.16684 211.06 2.08304 210.449 2.08304C209.336 2.08304 208.327 2.36437 207.423 2.92703C206.526 3.48969 205.81 4.31872 205.277 5.41411C204.751 6.50951 204.487 7.85331 204.487 9.44552C204.487 11.0377 204.751 12.3815 205.277 13.4769C205.81 14.5723 206.526 15.4013 207.423 15.964C208.327 16.5267 209.336 16.808 210.449 16.808C211.06 16.808 211.646 16.7242 212.209 16.5566C212.772 16.389 213.283 16.1406 213.744 15.8114C214.211 15.4762 214.606 15.0661 214.93 14.5813C215.259 14.0905 215.489 13.5278 215.621 12.8933H217.848C217.68 13.8331 217.375 14.6741 216.932 15.4163C216.489 16.1585 215.938 16.79 215.28 17.3108C214.621 17.8256 213.882 18.2176 213.062 18.487C212.248 18.7564 211.377 18.891 210.449 18.891C208.881 18.891 207.486 18.5079 206.265 17.7418C205.044 16.9756 204.083 15.8862 203.383 14.4735C202.683 13.0609 202.333 11.3849 202.333 9.44552C202.333 7.50613 202.683 5.83012 203.383 4.41749C204.083 3.00485 205.044 1.91544 206.265 1.14926C207.486 0.383088 208.881 0 210.449 0C211.377 0 212.248 0.13468 213.062 0.404039C213.882 0.673398 214.621 1.06846 215.28 1.58922C215.938 2.10399 216.489 2.7325 216.932 3.47473C217.375 4.21098 217.68 5.05198 217.848 5.99773Z" fill="#281C49"/>
<path d="M228.774 18.6396H226.439L233.191 0.251402H235.49L242.242 18.6396H239.907L234.412 3.16048H234.269L228.774 18.6396ZM231.324 11.4567H237.357L238.059 13.432H230.622L231.324 11.4567Z" fill="#281C49"/>
<path d="M52 31.5879C52.3252 31.5165 52.6742 31.465 53.047 31.4332C53.4199 31.4015 53.7411 31.3857 54.0108 31.3857C54.3519 31.3857 54.685 31.4213 55.0103 31.4927C55.3355 31.5562 55.621 31.6791 55.8669 31.8616C56.1208 32.0361 56.323 32.278 56.4737 32.5874C56.6324 32.8888 56.7117 33.2735 56.7117 33.7415C56.7117 34.4157 56.5848 34.967 56.331 35.3954C56.0851 35.8158 55.744 36.1053 55.3077 36.2639L55.7836 36.6447L57.3185 39.8334H55.5933L54.1417 36.5495L53.4992 36.3948V39.8334H52V31.5879ZM53.4992 35.3716H54.0108C54.3836 35.3716 54.6652 35.2605 54.8556 35.0384C55.046 34.8084 55.1411 34.4554 55.1411 33.9795C55.1411 33.6225 55.0618 33.333 54.9032 33.1109C54.7445 32.8809 54.4947 32.7659 54.1536 32.7659C54.0267 32.7659 53.9037 32.7698 53.7847 32.7777C53.6658 32.7857 53.5706 32.8015 53.4992 32.8253V35.3716Z" fill="#F45634"/>
<path d="M61.0775 31.5046H65.2419V32.8848H62.5767V34.9313H64.9921V36.3115H62.5767V38.4532H65.2895V39.8334H61.0775V31.5046Z" fill="#F45634"/>
<path d="M72.1987 37.6917C72.1987 37.4379 72.1233 37.2237 71.9726 37.0492C71.8219 36.8668 71.6316 36.6962 71.4015 36.5376C71.1794 36.379 70.9335 36.2164 70.6638 36.0498C70.4021 35.8832 70.1562 35.6889 69.9261 35.4668C69.704 35.2447 69.5176 34.9829 69.3669 34.6815C69.2162 34.3801 69.1409 34.0112 69.1409 33.5749C69.1409 33.1704 69.2003 32.8293 69.3193 32.5517C69.4462 32.2661 69.6168 32.0361 69.8309 31.8616C70.0451 31.6791 70.2989 31.5483 70.5924 31.4689C70.8859 31.3817 71.1992 31.3381 71.5324 31.3381C71.9369 31.3381 72.3137 31.3777 72.6627 31.457C73.0118 31.5364 73.3013 31.6434 73.5313 31.7783L73.0673 33.099C72.9324 33.0038 72.7302 32.9166 72.4605 32.8372C72.1987 32.7579 71.9131 32.7183 71.6038 32.7183C71.2944 32.7183 71.0565 32.7817 70.8899 32.9086C70.7233 33.0355 70.64 33.222 70.64 33.4678C70.64 33.6899 70.7154 33.8883 70.8661 34.0628C71.0168 34.2293 71.2032 34.3919 71.4253 34.5506C71.6553 34.7092 71.9012 34.8758 72.163 35.0503C72.4327 35.2169 72.6786 35.4152 72.9007 35.6452C73.1307 35.8673 73.3211 36.1331 73.4718 36.4424C73.6225 36.7438 73.6979 37.1048 73.6979 37.5252C73.6979 37.9456 73.6344 38.3104 73.5075 38.6198C73.3885 38.9292 73.214 39.187 72.984 39.3932C72.7619 39.5915 72.4922 39.7422 72.1749 39.8453C71.8576 39.9484 71.5046 40 71.116 40C70.6242 40 70.1919 39.9524 69.819 39.8572C69.4542 39.762 69.1726 39.6549 68.9743 39.536L69.4621 38.1915C69.6207 38.2866 69.8389 38.3818 70.1165 38.477C70.3941 38.5722 70.6916 38.6198 71.0089 38.6198C71.8021 38.6198 72.1987 38.3104 72.1987 37.6917Z" fill="#F45634"/>
<path d="M77.4155 35.669C77.4155 34.2571 77.6575 33.1823 78.1413 32.4446C78.6252 31.7069 79.3629 31.3381 80.3544 31.3381C80.87 31.3381 81.3142 31.4412 81.687 31.6474C82.0598 31.8457 82.3652 32.1352 82.6032 32.516C82.8411 32.8888 83.0157 33.3449 83.1267 33.8843C83.2457 34.4157 83.3052 35.0107 83.3052 35.669C83.3052 37.081 83.0553 38.1558 82.5556 38.8935C82.0638 39.6312 81.3301 40 80.3544 40C79.8309 40 79.3827 39.9008 79.0099 39.7025C78.645 39.4963 78.3436 39.2068 78.1056 38.834C77.8677 38.4532 77.6932 37.9971 77.5821 37.4657C77.4711 36.9263 77.4155 36.3274 77.4155 35.669ZM78.9861 35.669C78.9861 36.0894 79.0099 36.4821 79.0575 36.847C79.1051 37.2039 79.1844 37.5133 79.2955 37.775C79.4065 38.0368 79.5453 38.243 79.7119 38.3937C79.8864 38.5444 80.1006 38.6198 80.3544 38.6198C80.8145 38.6198 81.1595 38.3858 81.3896 37.9178C81.6196 37.4498 81.7346 36.7002 81.7346 35.669C81.7346 35.2645 81.7108 34.8837 81.6632 34.5268C81.6156 34.1619 81.5363 33.8486 81.4253 33.5868C81.3221 33.3171 81.1833 33.1069 81.0088 32.9562C80.8343 32.7976 80.6162 32.7183 80.3544 32.7183C79.4422 32.7183 78.9861 33.7018 78.9861 35.669Z" fill="#F45634"/>
<path d="M90.9526 31.5046H92.3685V36.9064C92.3685 37.9852 92.1464 38.7665 91.7022 39.2504C91.2659 39.7343 90.6591 39.9762 89.8818 39.9762C88.9696 39.9762 88.2993 39.7422 87.871 39.2742C87.4505 38.7983 87.2403 38.0764 87.2403 37.1087V31.5046H88.7395V36.847C88.7395 37.4974 88.8268 37.9535 89.0013 38.2153C89.1758 38.4691 89.4653 38.596 89.8699 38.596C90.2585 38.596 90.5362 38.4612 90.7027 38.1915C90.8693 37.9138 90.9526 37.4657 90.9526 36.847V31.5046Z" fill="#F45634"/>
<path d="M96.493 31.5879C96.8182 31.5165 97.1673 31.465 97.5401 31.4332C97.9129 31.4015 98.2341 31.3857 98.5038 31.3857C98.8449 31.3857 99.1781 31.4213 99.5033 31.4927C99.8285 31.5562 100.114 31.6791 100.36 31.8616C100.614 32.0361 100.816 32.278 100.967 32.5874C101.125 32.8888 101.205 33.2735 101.205 33.7415C101.205 34.4157 101.078 34.967 100.824 35.3954C100.578 35.8158 100.237 36.1053 99.8007 36.2639L100.277 36.6447L101.812 39.8334H100.086L98.6347 36.5495L97.9922 36.3948V39.8334H96.493V31.5879ZM97.9922 35.3716H98.5038C98.8766 35.3716 99.1582 35.2605 99.3486 35.0384C99.539 34.8084 99.6342 34.4554 99.6342 33.9795C99.6342 33.6225 99.5548 33.333 99.3962 33.1109C99.2375 32.8809 98.9877 32.7659 98.6466 32.7659C98.5197 32.7659 98.3967 32.7698 98.2778 32.7777C98.1588 32.7857 98.0636 32.8015 97.9922 32.8253V35.3716Z" fill="#F45634"/>
<path d="M109.98 39.5003C109.774 39.6748 109.497 39.8017 109.148 39.881C108.806 39.9603 108.465 40 108.124 40C107.696 40 107.295 39.9286 106.923 39.7858C106.558 39.6351 106.236 39.3892 105.959 39.0481C105.681 38.7071 105.463 38.2589 105.304 37.7036C105.146 37.1484 105.066 36.4662 105.066 35.6571C105.066 34.8163 105.154 34.1183 105.328 33.563C105.511 33.0078 105.745 32.5675 106.03 32.2423C106.324 31.9092 106.657 31.6752 107.03 31.5403C107.402 31.4055 107.779 31.3381 108.16 31.3381C108.549 31.3381 108.886 31.3698 109.171 31.4332C109.465 31.4967 109.703 31.5681 109.885 31.6474L109.588 32.9681C109.437 32.8888 109.259 32.8293 109.052 32.7896C108.854 32.7421 108.616 32.7183 108.338 32.7183C107.791 32.7183 107.371 32.9562 107.077 33.4322C106.784 33.9081 106.637 34.6537 106.637 35.669C106.637 36.1053 106.669 36.5059 106.732 36.8708C106.804 37.2277 106.911 37.5371 107.053 37.7988C107.204 38.0606 107.391 38.2629 107.613 38.4056C107.843 38.5484 108.116 38.6198 108.434 38.6198C108.711 38.6198 108.949 38.5841 109.148 38.5127C109.346 38.4334 109.524 38.3422 109.683 38.2391L109.98 39.5003Z" fill="#F45634"/>
<path d="M113.788 31.5046H117.953V32.8848H115.287V34.9313H117.703V36.3115H115.287V38.4532H118V39.8334H113.788V31.5046Z" fill="#F45634"/>
<path d="M124.909 37.6917C124.909 37.4379 124.834 37.2237 124.683 37.0492C124.533 36.8668 124.342 36.6962 124.112 36.5376C123.89 36.379 123.644 36.2164 123.375 36.0498C123.113 35.8832 122.867 35.6889 122.637 35.4668C122.415 35.2447 122.228 34.9829 122.078 34.6815C121.927 34.3801 121.852 34.0112 121.852 33.5749C121.852 33.1704 121.911 32.8293 122.03 32.5517C122.157 32.2661 122.327 32.0361 122.542 31.8616C122.756 31.6791 123.01 31.5483 123.303 31.4689C123.597 31.3817 123.91 31.3381 124.243 31.3381C124.648 31.3381 125.024 31.3777 125.373 31.457C125.722 31.5364 126.012 31.6434 126.242 31.7783L125.778 33.099C125.643 33.0038 125.441 32.9166 125.171 32.8372C124.909 32.7579 124.624 32.7183 124.315 32.7183C124.005 32.7183 123.767 32.7817 123.601 32.9086C123.434 33.0355 123.351 33.222 123.351 33.4678C123.351 33.6899 123.426 33.8883 123.577 34.0628C123.728 34.2293 123.914 34.3919 124.136 34.5506C124.366 34.7092 124.612 34.8758 124.874 35.0503C125.143 35.2169 125.389 35.4152 125.611 35.6452C125.841 35.8673 126.032 36.1331 126.183 36.4424C126.333 36.7438 126.409 37.1048 126.409 37.5252C126.409 37.9456 126.345 38.3104 126.218 38.6198C126.099 38.9292 125.925 39.187 125.695 39.3932C125.473 39.5915 125.203 39.7422 124.886 39.8453C124.568 39.9484 124.215 40 123.827 40C123.335 40 122.903 39.9524 122.53 39.8572C122.165 39.762 121.883 39.6549 121.685 39.536L122.173 38.1915C122.331 38.2866 122.55 38.3818 122.827 38.477C123.105 38.5722 123.402 38.6198 123.72 38.6198C124.513 38.6198 124.909 38.3104 124.909 37.6917Z" fill="#F45634"/>
<path d="M135.981 31.5046H137.48V39.8334H135.981V31.5046Z" fill="#F45634"/>
<path d="M143.611 35.7404L143.064 34.2769H143.004L143.195 35.7166V39.8334H141.779V31.4451H142.933L145.325 35.6333L145.836 37.073H145.908L145.717 35.6571V31.5046H147.133V39.8929H145.979L143.611 35.7404Z" fill="#F45634"/>
<path d="M156.307 32.8848H154.332V39.8334H152.833V32.8848H150.858V31.5046H156.307V32.8848Z" fill="#F45634"/>
<path d="M160.027 31.5046H164.191V32.8848H161.526V34.9313H163.942V36.3115H161.526V38.4532H164.239V39.8334H160.027V31.5046Z" fill="#F45634"/>
<path d="M168.233 31.5879C168.558 31.5165 168.907 31.465 169.28 31.4332C169.653 31.4015 169.974 31.3857 170.244 31.3857C170.585 31.3857 170.918 31.4213 171.243 31.4927C171.569 31.5562 171.854 31.6791 172.1 31.8616C172.354 32.0361 172.556 32.278 172.707 32.5874C172.865 32.8888 172.945 33.2735 172.945 33.7415C172.945 34.4157 172.818 34.967 172.564 35.3954C172.318 35.8158 171.977 36.1053 171.541 36.2639L172.017 36.6447L173.552 39.8334H171.826L170.375 36.5495L169.732 36.3948V39.8334H168.233V31.5879ZM169.732 35.3716H170.244C170.617 35.3716 170.898 35.2605 171.089 35.0384C171.279 34.8084 171.374 34.4554 171.374 33.9795C171.374 33.6225 171.295 33.333 171.136 33.1109C170.978 32.8809 170.728 32.7659 170.387 32.7659C170.26 32.7659 170.137 32.7698 170.018 32.7777C169.899 32.7857 169.804 32.8015 169.732 32.8253V35.3716Z" fill="#F45634"/>
<path d="M179.143 35.7404L178.596 34.2769H178.536L178.727 35.7166V39.8334H177.311V31.4451H178.465L180.856 35.6333L181.368 37.073H181.439L181.249 35.6571V31.5046H182.665V39.8929H181.511L179.143 35.7404Z" fill="#F45634"/>
<path d="M190.197 37.9535H188.234L187.746 39.8334H186.259L188.674 31.4451H189.852L192.279 39.8334H190.709L190.197 37.9535ZM188.555 36.7161H189.935L189.459 34.7767L189.269 33.4678H189.221L189.019 34.7886L188.555 36.7161Z" fill="#F45634"/>
<path d="M200.103 32.8848H198.128V39.8334H196.629V32.8848H194.654V31.5046H200.103V32.8848Z" fill="#F45634"/>
<path d="M203.954 31.5046H205.453V39.8334H203.954V31.5046Z" fill="#F45634"/>
<path d="M209.561 35.669C209.561 34.2571 209.803 33.1823 210.287 32.4446C210.771 31.7069 211.508 31.3381 212.5 31.3381C213.016 31.3381 213.46 31.4412 213.833 31.6474C214.205 31.8457 214.511 32.1352 214.749 32.516C214.987 32.8888 215.161 33.3449 215.272 33.8843C215.391 34.4157 215.451 35.0107 215.451 35.669C215.451 37.081 215.201 38.1558 214.701 38.8935C214.209 39.6312 213.476 40 212.5 40C211.976 40 211.528 39.9008 211.156 39.7025C210.791 39.4963 210.489 39.2068 210.251 38.834C210.013 38.4532 209.839 37.9971 209.728 37.4657C209.617 36.9263 209.561 36.3274 209.561 35.669ZM211.132 35.669C211.132 36.0894 211.156 36.4821 211.203 36.847C211.251 37.2039 211.33 37.5133 211.441 37.775C211.552 38.0368 211.691 38.243 211.857 38.3937C212.032 38.5444 212.246 38.6198 212.5 38.6198C212.96 38.6198 213.305 38.3858 213.535 37.9178C213.765 37.4498 213.88 36.7002 213.88 35.669C213.88 35.2645 213.856 34.8837 213.809 34.5268C213.761 34.1619 213.682 33.8486 213.571 33.5868C213.468 33.3171 213.329 33.1069 213.154 32.9562C212.98 32.7976 212.762 32.7183 212.5 32.7183C211.588 32.7183 211.132 33.7018 211.132 35.669Z" fill="#F45634"/>
<path d="M221.254 35.7404L220.707 34.2769H220.647L220.838 35.7166V39.8334H219.422V31.4451H220.576L222.967 35.6333L223.479 37.073H223.55L223.36 35.6571V31.5046H224.776V39.8929H223.622L221.254 35.7404Z" fill="#F45634"/>
<path d="M232.308 37.9535H230.345L229.857 39.8334H228.37L230.785 31.4451H231.963L234.39 39.8334H232.82L232.308 37.9535ZM230.666 36.7161H232.046L231.57 34.7767L231.38 33.4678H231.332L231.13 34.7886L230.666 36.7161Z" fill="#F45634"/>
<path d="M242.421 39.8334H237.995V31.5046H239.494V38.4532H242.421V39.8334Z" fill="#F45634"/>
<defs>
<linearGradient id="paint0_linear_33_11" x1="40.5183" y1="0.607916" x2="0.00485431" y2="40.005" gradientUnits="userSpaceOnUse">
<stop stop-color="#F45634"/>
<stop offset="0.504" stop-color="#9D2161"/>
<stop offset="1" stop-color="#1E1C49"/>
</linearGradient>
</defs>
</svg>
